<?xml version="1.0" encoding="UTF-8" standalone="no"?>
<!-- Created with Inkscape (http://www.inkscape.org/) -->

<svg
   xmlns:dc="http://purl.org/dc/elements/1.1/"
   xmlns:cc="http://creativecommons.org/ns#"
   xmlns:rdf="http://www.w3.org/1999/02/22-rdf-syntax-ns#"
   xmlns:svg="http://www.w3.org/2000/svg"
   xmlns="http://www.w3.org/2000/svg"
   xmlns:sodipodi="http://sodipodi.sourceforge.net/DTD/sodipodi-0.dtd"
   xmlns:inkscape="http://www.inkscape.org/namespaces/inkscape"
   width="640"
   height="112"
   viewBox="0 0 640 112"
   version="1.1"
   id="svg8"
   inkscape:version="0.92.1 r15371"
   sodipodi:docname="icons.svg">
  <defs
     id="defs2" />
  <sodipodi:namedview
     id="base"
     pagecolor="#838383"
     bordercolor="#666666"
     borderopacity="1.0"
     inkscape:pageopacity="0"
     inkscape:pageshadow="2"
     inkscape:zoom="8"
     inkscape:cx="48.79576"
     inkscape:cy="33.272086"
     inkscape:document-units="px"
     inkscape:current-layer="layer1"
     showgrid="true"
     units="px"
     inkscape:showpageshadow="false"
     objecttolerance="10"
     guidetolerance="10"
     inkscape:pagecheckerboard="false"
     inkscape:window-width="1600"
     inkscape:window-height="838"
     inkscape:window-x="-8"
     inkscape:window-y="-8"
     inkscape:window-maximized="1"
     showguides="false"
     inkscape:guide-bbox="true"
     inkscape:snap-bbox="true"
     inkscape:bbox-nodes="true"
     inkscape:snap-nodes="true"
     inkscape:snap-bbox-midpoints="true"
     viewbox-height="112"
     inkscape:snap-grids="true">
    <inkscape:grid
       type="xygrid"
       id="grid5040"
       spacingx="8"
       spacingy="8"
       color="#000000"
       opacity="0.05882353"
       empcolor="#000000"
       empopacity="0.15294118"
       empspacing="1" />
    <sodipodi:guide
       position="-4.0362774e-011,4.2333541"
       orientation="0,1"
       id="guide4534"
       inkscape:locked="false" />
    <sodipodi:guide
       position="-4.0362774e-011,10.583348"
       orientation="0,1"
       id="guide4536"
       inkscape:locked="false" />
    <sodipodi:guide
       position="-4.0362774e-011,20.108348"
       orientation="0,1"
       id="guide4538"
       inkscape:locked="false" />
    <sodipodi:guide
       position="-4.0362774e-011,32.80836"
       orientation="0,1"
       id="guide4540"
       inkscape:locked="false" />
  </sodipodi:namedview>
  <metadata
     id="metadata5">
    <rdf:RDF>
      <cc:Work
         rdf:about="">
        <dc:format>image/svg+xml</dc:format>
        <dc:type
           rdf:resource="http://purl.org/dc/dcmitype/StillImage" />
        <dc:title></dc:title>
      </cc:Work>
    </rdf:RDF>
  </metadata>
  <g
     inkscape:label="Layer 1"
     inkscape:groupmode="layer"
     id="layer1"
     transform="translate(0,-267.36665)">
    <g
       transform="matrix(3.7795276,0,0,3.7795276,0.00629489,-743.47094)"
       id="layer1-0"
       inkscape:label="Layer 1">
      <path
         id="path4512"
         style="clip-rule:evenodd;fill:#ffffff;fill-opacity:0.92647077;fill-rule:evenodd;stroke-width:0.16536169;stroke-linejoin:round;stroke-miterlimit:1.41420996"
         d="m 12.723994,278.21464 c 0.193636,0.003 0.386942,0.0165 0.578429,0.0457 0.354698,0.0543 0.701624,0.15709 1.02854,0.30493 0.3924,0.1776 0.755035,0.41952 1.070376,0.71304 0.326091,0.30361 0.600919,0.66196 0.809108,1.05618 0.177928,0.33701 0.306578,0.69966 0.380824,1.07354 0.08499,0.42895 0.09856,0.87196 0.04051,1.30521 -0.05391,0.40432 -0.171146,0.7997 -0.345932,1.1683 -0.201574,0.42465 -0.479379,0.8126 -0.815722,1.141 -0.353871,0.34561 -0.772066,0.62457 -1.227634,0.8174 -0.479378,0.20289 -0.997948,0.30872 -1.518502,0.31203 -0.521546,0.004 -1.042265,-0.0961 -1.525116,-0.29353 -0.458214,-0.18734 -0.879882,-0.46135 -1.2380514,-0.80282 -0.3401465,-0.32428 -0.6222514,-0.70876 -0.8289504,-1.13076 -0.1792509,-0.36578 -0.3009562,-0.75919 -0.3601546,-1.16217 -0.062175,-0.42449 -0.055566,-0.85924 0.020016,-1.28157 0.065812,-0.36809 0.1843762,-0.72628 0.350728,-1.06114 0.1985991,-0.39935 0.4649943,-0.76431 0.7841398,-1.07601 0.3193096,-0.31171 0.6908726,-0.56952 1.0953446,-0.75853 0.324601,-0.15163 0.669708,-0.25861 1.023247,-0.31733 0.190662,-0.0316 0.383141,-0.0487 0.576281,-0.0529 0.03423,-4.9e-4 0.0683,-6.6e-4 0.102523,-6.6e-4 z m -0.04713,0.66145 c -0.161557,9.4e-4 -0.322784,0.0138 -0.482521,0.0383 -0.295168,0.0451 -0.583887,0.1308 -0.855905,0.25383 -0.327247,0.14799 -0.629527,0.34974 -0.892283,0.59448 -0.267222,0.24871 -0.4931044,0.5414 -0.6655744,0.86319 -0.1496512,0.27931 -0.2586233,0.58028 -0.3221211,0.89082 -0.074569,0.36414 -0.08715,0.74083 -0.038034,1.10909 0.044147,0.3299 0.1385709,0.65252 0.2794584,0.95414 0.1688315,0.36116 0.4034781,0.69089 0.6887231,0.96953 0.295004,0.28806 0.643583,0.52073 1.023415,0.68146 0.399345,0.16901 0.831266,0.25697 1.26484,0.25979 0.434566,0.003 0.868306,-0.0799 1.270627,-0.24424 0.381982,-0.15627 0.733372,-0.3848 1.032013,-0.66939 0.288389,-0.27517 0.527003,-0.60193 0.700135,-0.96092 0.14436,-0.29932 0.242584,-0.62045 0.290869,-0.94919 0.05391,-0.36777 0.04581,-0.7448 -0.02414,-1.10976 -0.05854,-0.30526 -0.160731,-0.60176 -0.302445,-0.87824 -0.169659,-0.3309 -0.395375,-0.63252 -0.664417,-0.88916 -0.259781,-0.24755 -0.559579,-0.45293 -0.884677,-0.60489 -0.270198,-0.12617 -0.557429,-0.21531 -0.851439,-0.26409 -0.159077,-0.0263 -0.319641,-0.0405 -0.480702,-0.044 -0.02861,-4.9e-4 -0.05722,-6.6e-4 -0.08582,-6.6e-4 z m 0.194463,5.29261 h -0.809603 v -1.81601 h -0.686245 v -0.69371 h 0.68641 v -0.52486 c 0,-0.60358 0.408274,-0.93512 1.012666,-0.93512 0.289546,0 0.543374,0.0175 0.615967,0.0262 v 0.64013 l -0.42911,-1.6e-4 c -0.328737,0 -0.390085,0.13923 -0.390085,0.34345 v 0.45045 h 0.786453 l -0.102022,0.6937 h -0.684434 z"
         inkscape:connector-curvature="0" />
      <path
         id="path4514"
         style="clip-rule:evenodd;fill:#ffffff;fill-opacity:0.92647077;fill-rule:evenodd;stroke-width:0.16536169;stroke-linejoin:round;stroke-miterlimit:1.41420996"
         d="m 21.190658,278.21464 c 0.193636,0.003 0.386943,0.0165 0.57843,0.0457 0.354697,0.0543 0.701624,0.15709 1.028539,0.30493 0.3924,0.1776 0.755036,0.41952 1.070377,0.71304 0.326091,0.30361 0.600919,0.66196 0.809107,1.05618 0.177928,0.33701 0.306578,0.69966 0.380825,1.07354 0.08499,0.42895 0.09856,0.87196 0.04051,1.30521 -0.05391,0.40432 -0.171147,0.7997 -0.345934,1.1683 -0.201573,0.42465 -0.479379,0.8126 -0.815721,1.141 -0.353871,0.34561 -0.772067,0.62457 -1.227634,0.8174 -0.479379,0.20289 -0.997948,0.30872 -1.518502,0.31203 -0.521546,0.004 -1.042264,-0.0961 -1.525117,-0.29353 -0.458212,-0.18734 -0.879881,-0.46135 -1.238052,-0.80282 -0.340145,-0.32428 -0.622249,-0.70876 -0.828949,-1.13076 -0.179251,-0.36578 -0.300956,-0.75919 -0.360155,-1.16217 -0.06217,-0.42449 -0.05556,-0.85924 0.02002,-1.28157 0.06581,-0.36809 0.184376,-0.72628 0.35073,-1.06114 0.198597,-0.39935 0.464992,-0.76431 0.784137,-1.07601 0.31931,-0.31171 0.690874,-0.56952 1.095346,-0.75853 0.324601,-0.15163 0.669708,-0.25862 1.023249,-0.31733 0.190659,-0.0316 0.383138,-0.0487 0.576279,-0.0529 0.03423,-4.9e-4 0.0683,-6.6e-4 0.102522,-6.6e-4 z m -0.04713,0.66145 c -0.161556,9.4e-4 -0.322784,0.0138 -0.482521,0.0383 -0.295168,0.0451 -0.583887,0.1308 -0.855904,0.25383 -0.327248,0.14799 -0.629526,0.34974 -0.892283,0.59448 -0.272019,0.25317 -0.501373,0.55198 -0.674835,0.88089 -0.144856,0.27433 -0.250686,0.56918 -0.312862,0.87328 -0.07457,0.36398 -0.08715,0.74067 -0.03803,1.10893 0.04415,0.3299 0.138571,0.65252 0.279458,0.95414 0.168834,0.36116 0.403479,0.69089 0.688726,0.96953 0.295002,0.28806 0.643581,0.52073 1.023413,0.68146 0.399345,0.16901 0.831265,0.25697 1.26484,0.25979 0.434566,0.003 0.868306,-0.0799 1.270627,-0.24424 0.381983,-0.15627 0.733373,-0.3848 1.032012,-0.66939 0.288389,-0.27517 0.527004,-0.60193 0.700135,-0.96092 0.14436,-0.29932 0.242584,-0.62045 0.290869,-0.94919 0.05392,-0.36777 0.04582,-0.7448 -0.02414,-1.10976 -0.05854,-0.30526 -0.160731,-0.60176 -0.302445,-0.87824 -0.169659,-0.3309 -0.395376,-0.63252 -0.664417,-0.88916 -0.259781,-0.24755 -0.559578,-0.45293 -0.884676,-0.6049 -0.2702,-0.12616 -0.557429,-0.2153 -0.85144,-0.26408 -0.159077,-0.0263 -0.319642,-0.0405 -0.480702,-0.044 -0.02861,-5e-4 -0.05722,-6.6e-4 -0.08582,-6.6e-4 z m 1.385718,5.29162 h -2.728442 c -0.34246,0 -0.620098,-0.27765 -0.620098,-0.62011 v -2.72849 c 0,-0.34246 0.277638,-0.62011 0.620098,-0.62011 h 2.728444 c 0.342461,0 0.6201,0.27765 0.6201,0.62011 v 2.72849 c 0,0.34246 -0.277639,0.62011 -0.6201,0.62011 z m -2.468,-2.31508 h -0.384463 v 1.57095 c 0,0.13708 0.111122,0.24805 0.24804,0.24805 h 2.480403 c 0.136919,0 0.24804,-0.111 0.24804,-0.24805 v -1.57095 h -0.384465 c 0.03158,0.1055 0.05374,0.21497 0.05374,0.33073 0,0.63929 -0.518239,1.15754 -1.15752,1.15754 -0.639283,0 -1.157521,-0.51825 -1.157521,-1.15754 0,-0.11576 0.02216,-0.22523 0.05374,-0.33073 z m 1.103779,-0.33074 c -0.365282,0 -0.661441,0.29618 -0.661441,0.66147 0,0.36527 0.296159,0.66145 0.661441,0.66145 0.36528,0 0.66144,-0.29618 0.66144,-0.66145 0,-0.36529 -0.29616,-0.66147 -0.66144,-0.66147 z m 1.240201,-0.8268 h -0.165359 c -0.137084,0 -0.248041,0.11112 -0.248041,0.24804 v 0.16535 c 0,0.13693 0.111122,0.24806 0.248041,0.24806 h 0.165359 c 0.136919,0 0.24804,-0.11113 0.24804,-0.24806 v -0.16535 c 0,-0.13692 -0.111121,-0.24804 -0.24804,-0.24804 z"
         inkscape:connector-curvature="0" />
      <path
         id="path4516"
         style="clip-rule:evenodd;fill:#ffffff;fill-opacity:0.92647077;fill-rule:evenodd;stroke-width:0.1653616;stroke-linejoin:round;stroke-miterlimit:1.41420996"
         d="m 4.2573259,278.21463 c 0.1936366,0.003 0.3869432,0.0165 0.5784298,0.0457 0.3546974,0.0543 0.7016231,0.15709 1.0285405,0.30493 0.392399,0.1776 0.7550339,0.41952 1.0703755,0.71304 0.3260898,0.30361 0.6009189,0.66196 0.8091075,1.05619 0.1779274,0.337 0.3065773,0.69964 0.3808248,1.07354 0.084998,0.42893 0.098559,0.87195 0.040509,1.3052 -0.053908,0.40431 -0.1711483,0.79969 -0.3459332,1.16829 -0.2015736,0.42465 -0.4793786,0.8126 -0.8157226,1.14101 -0.3538699,0.34561 -0.7720647,0.62456 -1.2276329,0.81739 -0.479379,0.2029 -0.9979479,0.30872 -1.5185019,0.31204 -0.5215457,0.004 -1.0422647,-0.0961 -1.5251162,-0.29353 -0.4582131,-0.18735 -0.8798813,-0.46136 -1.2380512,-0.80283 -0.3401457,-0.32428 -0.6222498,-0.70875 -0.82895064,-1.13075 -0.17924981,-0.36578 -0.30095493,-0.7592 -0.36015384,-1.16218 -0.0621759,-0.42448 -0.0555609,-0.85923 0.0200081,-1.28156 0.0658134,-0.3681 0.18437653,-0.72628 0.35072897,-1.06114 0.19859756,-0.39935 0.46499231,-0.76431 0.78413731,-1.07602 0.3193107,-0.31171 0.6908748,-0.56951 1.0953455,-0.75852 0.3246024,-0.15164 0.6697089,-0.25862 1.0232488,-0.31732 0.1906599,-0.0317 0.383139,-0.0487 0.5762798,-0.0529 0.034225,-4.9e-4 0.068291,-6.6e-4 0.1025233,-6.6e-4 z m -0.047125,0.66146 c -0.1615566,0.002 -0.3227824,0.0138 -0.4825206,0.0383 -0.2951675,0.0452 -0.5838866,0.1308 -0.855904,0.25382 -0.3272473,0.148 -0.6295256,0.34975 -0.8922829,0.59448 -0.2720174,0.25318 -0.5013716,0.55199 -0.6748349,0.8809 -0.1448549,0.27434 -0.2506857,0.56917 -0.31286066,0.87311 -0.0745753,0.36414 -0.0871463,0.74083 -0.0380334,1.10909 0.0441497,0.3299 0.13857166,0.65253 0.27945906,0.95414 0.1688324,0.36116 0.4034783,0.6909 0.6887248,0.96954 0.2950024,0.28805 0.6435814,0.52073 1.0234138,0.68146 0.399344,0.169 0.8312647,0.25696 1.2648396,0.25978 0.4345656,0.003 0.8683054,-0.0799 1.270627,-0.24424 0.3819815,-0.15627 0.7333713,-0.3848 1.0320121,-0.66939 0.2883883,-0.27517 0.5270032,-0.60193 0.7001348,-0.96092 0.1443599,-0.29931 0.2425832,-0.62044 0.2908682,-0.94919 0.053908,-0.36777 0.045808,-0.74479 -0.024133,-1.10975 -0.058534,-0.30526 -0.1607291,-0.60176 -0.3024432,-0.87824 -0.1696591,-0.3309 -0.3953757,-0.63253 -0.6644173,-0.88916 -0.2597798,-0.24755 -0.5595781,-0.45294 -0.8846763,-0.60489 -0.2701982,-0.12618 -0.557429,-0.21532 -0.8514388,-0.26409 -0.1590766,-0.0263 -0.3196416,-0.0405 -0.4807016,-0.044 -0.028608,-5e-4 -0.057216,-6.7e-4 -0.085821,-6.7e-4 z m 1.7301635,2.40767 c 0.00167,0.0388 0.00217,0.0777 0.00217,0.11713 0,1.19589 -0.8864955,2.57486 -2.5078516,2.57486 -0.4980648,0 -0.961073,-0.14948 -1.3513229,-0.4068 0.068959,0.008 0.1389025,0.0127 0.2101724,0.0127 0.4129041,0 0.7930673,-0.14436 1.0950146,-0.38744 -0.3857848,-0.006 -0.7115447,-0.26873 -0.8238238,-0.62823 0.053908,0.0113 0.1094683,0.0165 0.1661866,0.0165 0.080033,0 0.1579191,-0.0113 0.2323316,-0.0318 -0.403479,-0.0833 -0.7075765,-0.44911 -0.7075765,-0.88734 0,-0.005 0,-0.007 0,-0.0112 0.1190592,0.0673 0.2551508,0.10838 0.3996758,0.113 -0.2367958,-0.16255 -0.3923999,-0.43937 -0.3923999,-0.75307 0,-0.16602 0.043325,-0.3213 0.1195558,-0.45525 0.4345665,0.54769 1.0844313,0.90769 1.8169769,0.94588 -0.01505,-0.0661 -0.022817,-0.13591 -0.022817,-0.20653 0,-0.49972 0.3947149,-0.90486 0.8816997,-0.90486 0.2533324,0 0.4823556,0.10999 0.6430856,0.28574 0.2010782,-0.0405 0.3895882,-0.11575 0.5602406,-0.2196 -0.066141,0.211 -0.2057083,0.3886 -0.3881007,0.50038 0.1785891,-0.0212 0.348579,-0.07 0.506499,-0.14204 -0.1183966,0.18141 -0.2673882,0.34048 -0.4396932,0.46831 z"
         inkscape:connector-curvature="0" />
      <path
         id="path4552"
         style="clip-rule:evenodd;fill:#d51414;fill-opacity:1;fill-rule:evenodd;stroke-width:0.13229167;stroke-linejoin:round;stroke-miterlimit:1.41420996"
         d="m 2.5239136,293.47626 0.817827,0.59412 -0.408913,0.5629 0.66159,0.21497 -0.31234,0.96137 -0.661591,-0.21498 v 0.69572 h -1.010973 v -0.69572 l -0.66159055,0.21498 -0.3123406,-0.96137 0.66159075,-0.21497 -0.40891365,-0.5629 0.81782705,-0.59412 0.408914,0.56276 z"
         inkscape:connector-curvature="0" />
      <path
         sodipodi:nodetypes="ccccccccccccc"
         style="fill:#000000;fill-opacity:0.46478876;stroke-width:0.26458332"
         inkscape:connector-curvature="0"
         d="m 5.0254169,290.12081 h -1.5875 v 1.5875 H 2.6441668 v -1.5875 l -1.5875001,-1e-5 v -0.79373 l 1.5875001,1e-5 v -1.58752 h 0.7937501 v 1.58752 h 1.5875 z"
         id="path4572" />
      <path
         sodipodi:nodetypes="ccccccccccccc"
         style="fill:#992B2B;fill-opacity:1;stroke-width:0.26458332"
         inkscape:connector-curvature="0"
         d="m 10.645865,291.27545 -1.1225315,-1.12253 -1.122532,1.12253 -0.5612662,-0.56126 1.122532,-1.12253 -1.122525,-1.12254 0.5612519,-0.56126 1.122525,1.12254 1.1225458,-1.12254 0.561266,0.56126 -1.122546,1.12255 1.122532,1.12253 z"
         id="path4572-6" />
    </g>
    <path
       style="color:#000000;font-style:normal;font-variant:normal;font-weight:normal;font-stretch:normal;font-size:medium;line-height:normal;font-family:sans-serif;font-variant-ligatures:normal;font-variant-position:normal;font-variant-caps:normal;font-variant-numeric:normal;font-variant-alternates:normal;font-feature-settings:normal;text-indent:0;text-align:start;text-decoration:none;text-decoration-line:none;text-decoration-style:solid;text-decoration-color:#000000;letter-spacing:normal;word-spacing:normal;text-transform:none;writing-mode:lr-tb;direction:ltr;text-orientation:mixed;dominant-baseline:auto;baseline-shift:baseline;text-anchor:start;white-space:normal;shape-padding:0;clip-rule:nonzero;display:inline;overflow:visible;visibility:visible;opacity:1;isolation:auto;mix-blend-mode:normal;color-interpolation:sRGB;color-interpolation-filters:linearRGB;solid-color:#000000;solid-opacity:1;vector-effect:none;fill:#000000;fill-opacity:0.46478876;fill-rule:nonzero;stroke:none;stroke-width:3;stroke-linecap:butt;stroke-linejoin:miter;stroke-miterlimit:4;stroke-dasharray:none;stroke-dashoffset:0;stroke-opacity:1;color-rendering:auto;image-rendering:auto;shape-rendering:auto;text-rendering:auto;enable-background:accumulate"
       d="m 65.126524,357.37705 -6.010407,-6.01041 6.010407,-6.01041 -2.12132,-2.12132 -8.131728,8.13173 8.131728,8.13173 z"
       id="path25"
       inkscape:connector-curvature="0" />
  </g>
</svg>
