<?xml version="1.0" encoding="UTF-8" standalone="no"?>
<!DOCTYPE svg PUBLIC "-//W3C//DTD SVG 1.1//EN" "http://www.w3.org/Graphics/SVG/1.1/DTD/svg11.dtd">
<svg width="960" height="48" viewBox="0 0 960 48" version="1.1" xmlns="http://www.w3.org/2000/svg" xmlns:xlink="http://www.w3.org/1999/xlink" xml:space="preserve" style="fill-rule:evenodd;clip-rule:evenodd;stroke-linejoin:round;stroke-miterlimit:1.41421;">
    <g id="white">
        <path d="M72.155,0C73.326,0.012 74.495,0.1 75.653,0.277C77.798,0.605 79.896,1.227 81.873,2.121C84.246,3.195 86.439,4.658 88.346,6.433C90.318,8.269 91.98,10.436 93.239,12.82C94.315,14.858 95.093,17.051 95.542,19.312C96.056,21.906 96.138,24.585 95.787,27.205C95.461,29.65 94.752,32.041 93.695,34.27C92.476,36.838 90.796,39.184 88.762,41.17C86.622,43.26 84.093,44.947 81.338,46.113C78.439,47.34 75.303,47.98 72.155,48C69.001,48.02 65.852,47.419 62.932,46.225C60.161,45.092 57.611,43.435 55.445,41.37C53.388,39.409 51.682,37.084 50.432,34.532C49.348,32.32 48.612,29.941 48.254,27.504C47.878,24.937 47.918,22.308 48.375,19.754C48.773,17.528 49.49,15.362 50.496,13.337C51.697,10.922 53.308,8.715 55.238,6.83C57.169,4.945 59.416,3.386 61.862,2.243C63.825,1.326 65.912,0.679 68.05,0.324C69.203,0.133 70.367,0.03 71.535,0.004C71.742,0.001 71.948,0 72.155,0ZM71.87,4C70.893,4.01 69.918,4.083 68.952,4.231C67.167,4.504 65.421,5.022 63.776,5.766C61.797,6.661 59.969,7.881 58.38,9.361C56.764,10.865 55.398,12.635 54.355,14.581C53.45,16.27 52.791,18.09 52.407,19.968C51.956,22.17 51.88,24.448 52.177,26.675C52.444,28.67 53.015,30.621 53.867,32.445C54.888,34.629 56.307,36.623 58.032,38.308C59.816,40.05 61.924,41.457 64.221,42.429C66.636,43.451 69.248,43.983 71.87,44C74.498,44.016 77.121,43.517 79.554,42.523C81.864,41.578 83.989,40.196 85.795,38.475C87.539,36.811 88.982,34.835 90.029,32.664C90.902,30.854 91.496,28.912 91.788,26.924C92.114,24.7 92.065,22.42 91.642,20.213C91.288,18.367 90.67,16.574 89.813,14.902C88.787,12.901 87.422,11.077 85.795,9.525C84.224,8.028 82.411,6.786 80.445,5.867C78.811,5.104 77.074,4.565 75.296,4.27C74.334,4.111 73.363,4.025 72.389,4.004C72.216,4.001 72.043,4 71.87,4ZM73.046,36.006L68.15,36.006L68.15,25.024L64,25.024L64,20.829L68.151,20.829L68.151,17.655C68.151,14.005 70.62,12 74.275,12C76.026,12 77.561,12.106 78,12.158L78,16.029L75.405,16.028C73.417,16.028 73.046,16.87 73.046,18.105L73.046,20.829L77.802,20.829L77.185,25.024L73.046,25.024L73.046,36.006Z" style="fill:white;fill-opacity:0.901961;"/>
        <path d="M120.155,0C121.326,0.012 122.495,0.1 123.653,0.277C125.798,0.605 127.896,1.227 129.873,2.121C132.246,3.195 134.439,4.658 136.346,6.433C138.318,8.269 139.98,10.436 141.239,12.82C142.315,14.858 143.093,17.051 143.542,19.312C144.056,21.906 144.138,24.585 143.787,27.205C143.461,29.65 142.752,32.041 141.695,34.27C140.476,36.838 138.796,39.184 136.762,41.17C134.622,43.26 132.093,44.947 129.338,46.113C126.439,47.34 123.303,47.98 120.155,48C117.001,48.02 113.852,47.419 110.932,46.225C108.161,45.092 105.611,43.435 103.445,41.37C101.388,39.409 99.682,37.084 98.432,34.532C97.348,32.32 96.612,29.941 96.254,27.504C95.878,24.937 95.918,22.308 96.375,19.754C96.773,17.528 97.49,15.362 98.496,13.337C99.697,10.922 101.308,8.715 103.238,6.83C105.169,4.945 107.416,3.386 109.862,2.243C111.825,1.326 113.912,0.679 116.05,0.324C117.203,0.133 118.367,0.03 119.535,0.004C119.742,0.001 119.948,0 120.155,0ZM119.87,4C118.893,4.01 117.918,4.083 116.952,4.231C115.167,4.504 113.421,5.022 111.776,5.766C109.797,6.661 107.969,7.881 106.38,9.361C104.735,10.892 103.348,12.699 102.299,14.688C101.423,16.347 100.783,18.13 100.407,19.969C99.956,22.17 99.88,24.448 100.177,26.675C100.444,28.67 101.015,30.621 101.867,32.445C102.888,34.629 104.307,36.623 106.032,38.308C107.816,40.05 109.924,41.457 112.221,42.429C114.636,43.451 117.248,43.983 119.87,44C122.498,44.016 125.121,43.517 127.554,42.523C129.864,41.578 131.989,40.196 133.795,38.475C135.539,36.811 136.982,34.835 138.029,32.664C138.902,30.854 139.496,28.912 139.788,26.924C140.114,24.7 140.065,22.42 139.642,20.213C139.288,18.367 138.67,16.574 137.813,14.902C136.787,12.901 135.422,11.077 133.795,9.525C132.224,8.028 130.411,6.786 128.445,5.867C126.811,5.104 125.074,4.565 123.296,4.27C122.334,4.111 121.363,4.025 120.389,4.004C120.216,4.001 120.043,4 119.87,4ZM128.25,36L111.75,36C109.679,36 108,34.321 108,32.25L108,15.75C108,13.679 109.679,12 111.75,12L128.25,12C130.321,12 132,13.679 132,15.75L132,32.25C132,34.321 130.321,36 128.25,36ZM113.325,22L111,22L111,31.5C111,32.329 111.672,33 112.5,33L127.5,33C128.328,33 129,32.329 129,31.5L129,22L126.675,22C126.866,22.638 127,23.3 127,24C127,27.866 123.866,31 120,31C116.134,31 113,27.866 113,24C113,23.3 113.134,22.638 113.325,22ZM120,20C117.791,20 116,21.791 116,24C116,26.209 117.791,28 120,28C122.209,28 124,26.209 124,24C124,21.791 122.209,20 120,20ZM127.5,15L126.5,15C125.671,15 125,15.672 125,16.5L125,17.5C125,18.328 125.672,19 126.5,19L127.5,19C128.328,19 129,18.328 129,17.5L129,16.5C129,15.672 128.328,15 127.5,15Z" style="fill:white;fill-opacity:0.901961;"/>
        <path d="M24.155,0C25.326,0.012 26.495,0.1 27.653,0.277C29.798,0.605 31.896,1.227 33.873,2.121C36.246,3.195 38.439,4.658 40.346,6.433C42.318,8.269 43.98,10.436 45.239,12.82C46.315,14.858 47.093,17.051 47.542,19.312C48.056,21.906 48.138,24.585 47.787,27.205C47.461,29.65 46.752,32.041 45.695,34.27C44.476,36.838 42.796,39.184 40.762,41.17C38.622,43.26 36.093,44.947 33.338,46.113C30.439,47.34 27.303,47.98 24.155,48C21.001,48.02 17.852,47.419 14.932,46.225C12.161,45.092 9.611,43.435 7.445,41.37C5.388,39.409 3.682,37.084 2.432,34.532C1.348,32.32 0.612,29.941 0.254,27.504C-0.122,24.937 -0.082,22.308 0.375,19.754C0.773,17.528 1.49,15.362 2.496,13.337C3.697,10.922 5.308,8.715 7.238,6.83C9.169,4.945 11.416,3.386 13.862,2.243C15.825,1.326 17.912,0.679 20.05,0.324C21.203,0.133 22.367,0.03 23.535,0.004C23.742,0.001 23.948,0 24.155,0ZM23.87,4C22.893,4.01 21.918,4.083 20.952,4.231C19.167,4.504 17.421,5.022 15.776,5.766C13.797,6.661 11.969,7.881 10.38,9.361C8.735,10.892 7.348,12.699 6.299,14.688C5.423,16.347 4.783,18.13 4.407,19.968C3.956,22.17 3.88,24.448 4.177,26.675C4.444,28.67 5.015,30.621 5.867,32.445C6.888,34.629 8.307,36.623 10.032,38.308C11.816,40.05 13.924,41.457 16.221,42.429C18.636,43.451 21.248,43.983 23.87,44C26.498,44.016 29.121,43.517 31.554,42.523C33.864,41.578 35.989,40.196 37.795,38.475C39.539,36.811 40.982,34.835 42.029,32.664C42.902,30.854 43.496,28.912 43.788,26.924C44.114,24.7 44.065,22.42 43.642,20.213C43.288,18.367 42.67,16.574 41.813,14.902C40.787,12.901 39.422,11.077 37.795,9.525C36.224,8.028 34.411,6.786 32.445,5.867C30.811,5.104 29.074,4.565 27.296,4.27C26.334,4.111 25.363,4.025 24.389,4.004C24.216,4.001 24.043,4 23.87,4ZM34.333,18.56C34.343,18.795 34.346,19.03 34.346,19.268C34.346,26.5 28.985,34.839 19.18,34.839C16.168,34.839 13.368,33.935 11.008,32.379C11.425,32.431 11.848,32.455 12.279,32.455C14.776,32.455 17.075,31.582 18.901,30.112C16.568,30.071 14.598,28.487 13.919,26.313C14.245,26.378 14.581,26.413 14.924,26.413C15.408,26.413 15.879,26.345 16.329,26.221C13.889,25.717 12.05,23.505 12.05,20.855C12.05,20.827 12.05,20.807 12.05,20.786C12.77,21.193 13.593,21.441 14.467,21.469C13.035,20.486 12.094,18.812 12.094,16.915C12.094,15.911 12.356,14.972 12.817,14.162C15.445,17.474 19.375,19.651 23.805,19.882C23.714,19.482 23.667,19.06 23.667,18.633C23.667,15.611 26.054,13.161 28.999,13.161C30.531,13.161 31.916,13.826 32.888,14.889C34.104,14.644 35.244,14.189 36.276,13.561C35.876,14.837 35.032,15.911 33.929,16.587C35.009,16.459 36.037,16.163 36.992,15.728C36.276,16.825 35.375,17.787 34.333,18.56Z" style="fill:white;fill-opacity:0.901961;"/>
    </g>
</svg>
